# xmcd CD database file
#
# Track frame offsets:
#	150
#	20107
#	37955
#	61970
#	81902
#	104397
#	119245
#	138970
#	153652
#	173977
#	200192
#	216097
#
# Disc length: 3349 seconds
#
# Revision: 0
# Processed by: cddbd v1.4PL0 Copyright (c) Steve Scherf et al.
# Submitted via: CDex 1.40Release
#
DISCID=b50d130c
DTITLE=Lonnie Shields - Portrait
DYEAR=1900
DGENRE=Blues
TTITLE0=Fistful of Dollars
TTITLE1=Hard Times
TTITLE2=I Can't Let You Hurt Me
TTITLE3=I Can Play Dirty
TTITLE4=Eight Days A Week
TTITLE5=Boxing Gloves
TTITLE6=Cry, Sky
TTITLE7=Sweet Love
TTITLE8=Knock In Our Love
TTITLE9=My Baby Left Me
TTITLE10=L.S. Blues
TTITLE11=Cheatin' Woman Is Gone
EXTD=ID3G: 0
EXTT0=
EXTT1=
EXTT2=
EXTT3=
EXTT4=
EXTT5=
EXTT6=
EXTT7=
EXTT8=
EXTT9=
EXTT10=
EXTT11=
PLAYORDER=
